<svg t="1709544337432" class="icon" viewBox="0 0 1820 1024" version="1.1" xmlns="http://www.w3.org/2000/svg" p-id="27462" width="256" height="256"><path d="M235.643259 128.948148s268.496593 491.121778 716.079408 517.707852c0 0-334.298074-86.357333-537.059556-348.359111l241.92 33.867852s-108.487111 11.188148-135.471407 14.516148c0 0 128.711111 17.901037 217.723259 38.703407 89.02163 20.811852 133.840593 59.420444 222.568296 91.932445 67.868444 24.869926 140.288 49.967407 179.019852 53.219555 0 0 28.681481-41.358222 66.484148-92.871111 60.444444-82.36563 143.54963-183.665778 243.171556-197.432889 0 0 179.285333-25.381926 188.690963 159.668148 8.931556 175.720296-230.07763 333.482667-348.359111 367.710815 0 0 196.826074-144.109037 203.207111-396.743111 0 0-25.353481 295.632593-333.842963 430.610963 0 0-112.810667 48.877037-454.807704 19.351704 0 0 230.665481-45.861926 329.007408-154.823111 0 0-164.276148 157.193481-459.64326 96.768-99.858963-40.542815-130.635852-87.087407-130.635852-87.087408l4.835556-188.690963-43.548444 154.823111-72.57126-91.932444 29.032297-174.184296-58.064593 130.635852 38.703407-164.503704S258.844444 239.445333 225.962667 148.299852L235.643259 128.948148z" fill="#bcc1dc" p-id="27463"></path></svg>